<svg xmlns="http://www.w3.org/2000/svg" xmlns:xlink="http://www.w3.org/1999/xlink" viewBox="0,0,256,256" width="64px" height="64px"><defs><linearGradient x1="32" y1="4.833" x2="32" y2="60.502" gradientUnits="userSpaceOnUse" id="color-1"><stop offset="0" stop-color="#1fdbb2"></stop><stop offset="1" stop-color="#6c4ae8"></stop></linearGradient><linearGradient x1="33.031" y1="24.72" x2="33.031" y2="38.812" gradientUnits="userSpaceOnUse" id="color-2"><stop offset="0" stop-color="#1fdbb2"></stop><stop offset="1" stop-color="#1fdbb2"></stop></linearGradient><linearGradient x1="33.964" y1="11.334" x2="33.964" y2="53.371" gradientUnits="userSpaceOnUse" id="color-3"><stop offset="0" stop-color="#1fdbb2"></stop><stop offset="1" stop-color="#6c4ae8"></stop></linearGradient><linearGradient x1="32" y1="13.835" x2="32" y2="53.643" gradientUnits="userSpaceOnUse" id="color-4"><stop offset="0" stop-color="#1fdbb2"></stop><stop offset="1" stop-color="#6c4ae8"></stop></linearGradient></defs><g fill-opacity="0" fill="#dddddd" fill-rule="nonzero" stroke="none" stroke-width="1" stroke-linecap="butt" stroke-linejoin="miter" stroke-miterlimit="10" stroke-dasharray="" stroke-dashoffset="0" font-family="none" font-weight="none" font-size="none" text-anchor="none" style="mix-blend-mode: normal"><path d="M0,256v-256h256v256z" id="bgRectangle"></path></g><g fill="none" fill-rule="nonzero" stroke="none" stroke-width="1" stroke-linecap="butt" stroke-linejoin="miter" stroke-miterlimit="10" stroke-dasharray="" stroke-dashoffset="0" font-family="none" font-weight="none" font-size="none" text-anchor="none" style="mix-blend-mode: normal"><g transform="scale(4,4)"><path d="M32,58c-14.337,0 -26,-11.663 -26,-26c0,-14.337 11.663,-26 26,-26c14.337,0 26,11.663 26,26c0,14.337 -11.663,26 -26,26zM32,8c-13.233,0 -24,10.767 -24,24c0,13.233 10.767,24 24,24c13.233,0 24,-10.767 24,-24c0,-13.233 -10.767,-24 -24,-24z" fill="url(#color-1)"></path><path d="M26,39.365v-14.73l14.062,7.365z" fill="url(#color-2)"></path><path d="M26,41v-18l15.927,9zM27.939,26.271v11.457l10.139,-5.728z" fill="url(#color-3)"></path><path d="M32,47c-8.271,0 -15,-6.729 -15,-15c0,-8.271 6.729,-15 15,-15c8.271,0 15,6.729 15,15c0,8.271 -6.729,15 -15,15zM32,19c-7.168,0 -13,5.832 -13,13c0,7.168 5.832,13 13,13c7.168,0 13,-5.832 13,-13c0,-7.168 -5.832,-13 -13,-13z" fill="url(#color-4)"></path></g></g></svg>